<svg width="512" height="512" viewBox="0 0 512 512" fill="none" xmlns="http://www.w3.org/2000/svg">
<mask id="path-1-outside-1" maskUnits="userSpaceOnUse" x="23.5548" y="126.531" width="450.589" height="297.7" fill="black">
<rect fill="white" x="23.5548" y="126.531" width="450.589" height="297.7"/>
<path d="M246.26 297.706C147.631 251.416 32.0002 390.895 32.0002 390.895C32.0002 390.895 117.109 196.956 212.588 247.441C308.066 297.927 466.149 159.255 466.149 159.255C466.149 159.255 344.89 343.996 246.26 297.706Z"/>
</mask>
<path d="M246.26 297.706C147.631 251.416 32.0002 390.895 32.0002 390.895C32.0002 390.895 117.109 196.956 212.588 247.441C308.066 297.927 466.149 159.255 466.149 159.255C466.149 159.255 344.89 343.996 246.26 297.706Z" fill="#101EA3"/>
<path d="M32.0002 390.895L25.5903 388.082C24.1877 391.278 25.3539 395.019 28.3243 396.852C31.2948 398.685 35.1615 398.049 37.3892 395.362L32.0002 390.895ZM246.26 297.706L243.286 304.043L246.26 297.706ZM466.149 159.255L472.001 163.096C473.923 160.168 473.385 156.271 470.742 153.973C468.1 151.674 464.166 151.683 461.533 153.992L466.149 159.255ZM212.588 247.441L215.86 241.253L212.588 247.441ZM32.0002 390.895C37.3892 395.362 37.3884 395.363 37.388 395.364C37.3884 395.363 37.3885 395.363 37.3894 395.362C37.3912 395.36 37.3947 395.355 37.4001 395.349C37.4107 395.336 37.4282 395.315 37.4527 395.286C37.5016 395.228 37.5782 395.136 37.6818 395.014C37.8891 394.768 38.2047 394.397 38.6246 393.91C39.4645 392.936 40.7211 391.499 42.3622 389.677C45.6451 386.033 50.4615 380.857 56.5527 374.78C68.7521 362.609 85.982 346.906 106.179 332.662C147.094 303.805 197.674 282.635 243.286 304.043L249.235 291.369C196.218 266.487 139.668 291.911 98.1099 321.221C77.0704 336.06 59.2282 352.334 46.6646 364.869C40.3744 371.145 35.3865 376.504 31.9606 380.306C30.2472 382.208 28.9233 383.722 28.0212 384.769C27.5701 385.292 27.2244 385.698 26.9881 385.978C26.8699 386.118 26.7791 386.226 26.7161 386.301C26.6846 386.339 26.6601 386.368 26.6426 386.389C26.6339 386.4 26.6269 386.408 26.6217 386.415C26.619 386.418 26.6164 386.421 26.6151 386.422C26.613 386.425 26.6113 386.427 32.0002 390.895ZM243.286 304.043C270.316 316.729 298.572 313.349 324.983 302.036C351.301 290.764 376.401 271.388 398.005 250.921C419.666 230.399 438.145 208.462 451.186 191.695C457.715 183.301 462.901 176.179 466.461 171.144C468.242 168.626 469.617 166.629 470.552 165.254C471.019 164.566 471.377 164.034 471.62 163.67C471.741 163.488 471.834 163.348 471.898 163.252C471.93 163.204 471.954 163.167 471.971 163.141C471.98 163.128 471.987 163.117 471.992 163.11C471.994 163.106 471.997 163.103 471.998 163.101C472 163.098 472.001 163.096 466.149 159.255C460.297 155.414 460.297 155.413 460.297 155.413C460.297 155.414 460.296 155.415 460.295 155.416C460.293 155.42 460.288 155.427 460.282 155.436C460.27 155.455 460.25 155.484 460.224 155.525C460.17 155.606 460.087 155.73 459.976 155.896C459.755 156.229 459.419 156.728 458.974 157.383C458.085 158.691 456.758 160.618 455.031 163.061C451.575 167.948 446.516 174.897 440.136 183.099C427.359 199.525 409.358 220.88 388.376 240.758C367.337 260.69 343.629 278.82 319.471 289.167C295.407 299.475 271.519 301.828 249.235 291.369L243.286 304.043ZM466.149 159.255C461.533 153.992 461.533 153.992 461.533 153.992C461.533 153.992 461.532 153.993 461.531 153.994C461.527 153.997 461.522 154.002 461.514 154.009C461.498 154.023 461.473 154.045 461.438 154.075C461.368 154.136 461.261 154.229 461.117 154.353C460.829 154.602 460.394 154.976 459.818 155.465C458.667 156.443 456.955 157.881 454.734 159.699C450.293 163.337 443.826 168.493 435.762 174.53C419.618 186.615 397.153 202.174 371.794 216.149C346.391 230.149 318.362 242.404 291.055 248.109C263.739 253.815 237.782 252.845 215.86 241.253L209.316 253.63C235.133 267.281 264.74 267.908 293.918 261.813C323.105 255.715 352.499 242.768 378.551 228.411C404.648 214.029 427.671 198.075 444.152 185.737C452.4 179.562 459.028 174.279 463.605 170.53C465.894 168.655 467.671 167.163 468.882 166.135C469.488 165.62 469.952 165.222 470.268 164.949C470.426 164.812 470.547 164.707 470.63 164.635C470.672 164.599 470.704 164.571 470.726 164.551C470.738 164.541 470.746 164.533 470.753 164.528C470.756 164.525 470.759 164.522 470.761 164.521C470.763 164.519 470.765 164.517 466.149 159.255ZM215.86 241.253C189.557 227.346 163.872 230.434 140.873 242.341C118.179 254.09 97.853 274.492 80.9901 295.905C64.0558 317.409 50.222 340.441 40.6427 358.033C35.8449 366.844 32.0956 374.325 29.5405 379.615C28.2625 382.261 27.2823 384.361 26.6181 385.808C26.2859 386.531 26.0327 387.091 25.8607 387.474C25.7746 387.666 25.7089 387.814 25.6638 387.915C25.6412 387.966 25.6238 388.006 25.6115 388.033C25.6054 388.047 25.6005 388.058 25.597 388.066C25.5952 388.07 25.5936 388.074 25.5927 388.076C25.5913 388.079 25.5903 388.082 32.0002 390.895C38.4102 393.708 38.4098 393.708 38.4097 393.709C38.4101 393.708 38.4104 393.707 38.4112 393.705C38.4129 393.701 38.4158 393.695 38.4201 393.685C38.4285 393.666 38.4421 393.635 38.4608 393.593C38.4982 393.509 38.556 393.379 38.6339 393.205C38.7898 392.858 39.0261 392.335 39.3406 391.65C39.9697 390.28 40.9113 388.263 42.147 385.704C44.6192 380.586 48.265 373.31 52.938 364.728C62.3004 347.534 75.7112 325.237 91.989 304.567C108.338 283.806 127.192 265.189 147.309 254.774C167.121 244.517 187.879 242.295 209.316 253.63L215.86 241.253Z" fill="white" mask="url(#path-1-outside-1)"/>
<mask id="path-3-outside-2" maskUnits="userSpaceOnUse" x="49" y="49" width="414" height="414" fill="black">
<rect fill="white" x="49" y="49" width="414" height="414"/>
<path fill-rule="evenodd" clip-rule="evenodd" d="M256 456C366.457 456 456 366.457 456 256C456 235.658 452.963 216.026 447.318 197.531C397.162 263.921 322.958 335.78 252.248 304.833C191.567 278.275 129.17 312.574 81.6155 354.001C115.903 414.882 181.15 456 256 456ZM64.3061 313.223C58.9022 295.093 56 275.886 56 256C56 145.543 145.543 56 256 56C335.28 56 403.786 102.129 436.142 169.011C372.585 219.974 279.148 276.27 207.871 240.667C150.964 212.241 100.987 257.84 64.3061 313.223Z"/>
</mask>
<path fill-rule="evenodd" clip-rule="evenodd" d="M256 456C366.457 456 456 366.457 456 256C456 235.658 452.963 216.026 447.318 197.531C397.162 263.921 322.958 335.78 252.248 304.833C191.567 278.275 129.17 312.574 81.6155 354.001C115.903 414.882 181.15 456 256 456ZM64.3061 313.223C58.9022 295.093 56 275.886 56 256C56 145.543 145.543 56 256 56C335.28 56 403.786 102.129 436.142 169.011C372.585 219.974 279.148 276.27 207.871 240.667C150.964 212.241 100.987 257.84 64.3061 313.223Z" fill="url(#paint0_linear)"/>
<path d="M447.318 197.531L454.013 195.488L450.006 182.36L441.733 193.312L447.318 197.531ZM252.248 304.833L249.442 311.246L252.248 304.833ZM81.6155 354.001L77.0174 348.723L72.7183 352.468L75.5162 357.436L81.6155 354.001ZM64.3061 313.223L57.5978 315.223L61.8747 329.571L70.1422 317.088L64.3061 313.223ZM436.142 169.011L440.521 174.472L444.872 170.983L442.443 165.962L436.142 169.011ZM207.871 240.667L210.999 234.404H210.999L207.871 240.667ZM449 256C449 362.591 362.591 449 256 449V463C370.323 463 463 370.323 463 256H449ZM440.623 199.575C446.068 217.414 449 236.358 449 256H463C463 234.958 459.858 214.637 454.013 195.488L440.623 199.575ZM441.733 193.312C416.836 226.267 386.307 260.103 353.613 281.856C320.932 303.6 287.313 312.539 255.055 298.421L249.442 311.246C287.893 328.075 326.731 316.557 361.368 293.511C395.993 270.474 427.644 235.185 452.903 201.751L441.733 193.312ZM255.055 298.421C190.257 270.061 124.783 307.112 77.0174 348.723L86.2135 359.279C133.557 318.036 192.877 286.49 249.442 311.246L255.055 298.421ZM256 449C183.779 449 120.812 409.334 87.7147 350.566L75.5162 357.436C110.994 420.43 178.521 463 256 463V449ZM71.0145 311.223C65.8019 293.736 63 275.201 63 256H49C49 276.57 52.0025 296.451 57.5978 315.223L71.0145 311.223ZM63 256C63 149.409 149.409 63 256 63V49C141.677 49 49 141.677 49 256H63ZM256 63C332.495 63 398.609 107.502 429.841 172.059L442.443 165.962C408.963 96.756 338.065 49 256 49V63ZM204.743 246.929C242.95 266.013 286.434 260.134 327.488 243.805C368.628 227.443 408.501 200.147 440.521 174.472L431.763 163.55C400.226 188.837 361.602 215.171 322.314 230.797C282.942 246.456 244.069 250.923 210.999 234.404L204.743 246.929ZM70.1422 317.088C88.2626 289.729 109.245 265.475 132.151 251.491C154.698 237.727 178.846 233.993 204.743 246.929L210.999 234.404C179.989 218.915 150.695 223.768 124.856 239.542C99.3763 255.097 77.0301 281.335 58.4701 309.358L70.1422 317.088Z" fill="white" mask="url(#path-3-outside-2)"/>
<defs>
<linearGradient id="paint0_linear" x1="387" y1="27" x2="31" y2="352" gradientUnits="userSpaceOnUse">
<stop stop-color="#7BD2EE"/>
<stop offset="1" stop-color="#0A4377"/>
</linearGradient>
</defs>
</svg>
